# File produced by Open Asset Import Library (http://www.assimp.sf.net)
# (assimp v3.1.202510665)

mtllib sombrero_mesh.mtl

# vertex positions
v -83.802834 -0.070308 -46.561543
v -83.802834 0.433013 -46.561543
v -85.538132 0.433012 -45.842758
v -85.538132 -0.070169 -45.842758
v -85.538086 -0.070806 -46.720684
v -84.423546 -0.066615 -47.182335
v -85.538132 0.433014 -47.235035
v -84.787323 0.433014 -47.546032
v -85.538132 0.433013 -46.491985
v -84.261902 0.433013 -47.020618
v -83.084045 -0.070448 -48.296844
v -83.084045 0.433013 -48.296844
v -83.961899 -0.062424 -48.296871
v -84.476326 0.433013 -48.296844
v -83.733276 0.433013 -48.296844
v -83.802834 -0.070506 -50.032146
v -83.802834 0.433013 -50.032146
v -84.423561 -0.060688 -49.411411
v -84.787323 0.433013 -49.047657
v -84.261902 0.433013 -49.573071
v -85.538132 -0.070448 -50.750931
v -85.538132 0.433013 -50.750931
v -85.538109 -0.062423 -49.873077
v -85.538132 0.433013 -49.358654
v -85.538132 0.433013 -50.101704
v -87.273430 -0.070308 -50.032146
v -87.273430 0.433013 -50.032146
v -86.652641 -0.066614 -49.411430
v -86.288940 0.433013 -49.047657
v -86.814362 0.433013 -49.573071
v -87.992218 -0.070168 -48.296844
v -87.992218 0.433013 -48.296844
v -87.114288 -0.070805 -48.296894
v -86.599937 0.433010 -48.296844
v -87.342987 0.433013 -48.296844
v -87.273430 -0.070111 -46.561543
v -87.272987 0.433013 -46.561993
v -86.652924 -0.074216 -47.182053
v -86.288940 0.433010 -47.546036
v -86.814362 0.433013 -47.020618
v -85.538132 3.602080 -46.906845
v -84.555252 3.602080 -47.313965
v -84.787323 3.709624 -47.546032
v -85.538132 3.709624 -47.235035
v -84.148132 3.602080 -48.296844
v -84.476326 3.709624 -48.296844
v -84.555252 3.602080 -49.279724
v -84.787323 3.709624 -49.047657
v -85.538132 3.602080 -49.686844
v -85.538132 3.709624 -49.358654
v -86.521011 3.602080 -49.279724
v -86.288940 3.709624 -49.047657
v -86.928131 3.602080 -48.296844
v -86.599937 3.709624 -48.296844
v -86.521011 3.602080 -47.313965
v -86.288940 3.709624 -47.546032
v -84.434433 0.433013 -47.193142
v -84.434433 0.992798 -47.193142
v -85.538132 0.992798 -46.735973
v -85.538132 0.433013 -46.735973
v -83.977264 0.433013 -48.296844
v -83.977264 0.992798 -48.296844
v -84.434433 0.433013 -49.400547
v -84.434433 0.992798 -49.400547
v -85.538132 0.433013 -49.857716
v -85.538132 0.992798 -49.857716
v -86.641830 0.433013 -49.400547
v -86.641830 0.992798 -49.400547
v -87.098999 0.433013 -48.296844
v -87.098999 0.992798 -48.296844
v -86.641830 0.433013 -47.193142
v -86.641830 0.992798 -47.193142
v -85.538132 3.304198 -47.235039
v -84.787323 3.304198 -47.546036
v -86.288940 3.304198 -47.546032
v -86.599937 3.304198 -48.296844
v -86.288940 3.304199 -49.047657
v -85.538132 3.304199 -49.358654
v -84.787323 3.304199 -49.047657
v -84.476326 3.304199 -48.296844
v -85.539352 3.304199 -47.785267
v -85.183983 3.304199 -47.942879
v -85.893425 3.304200 -47.940102
v -86.048729 3.304200 -48.293346
v -85.890739 3.304200 -48.648026
v -85.535408 3.304199 -48.805801
v -85.181389 3.304199 -48.650917
v -85.026093 3.304199 -48.297577
v -85.352638 3.782863 -48.476288
v -85.533195 3.782863 -48.501945
v -85.532623 3.782863 -48.294514
v -85.326767 3.782863 -48.294731
v -85.352592 3.782863 -48.113361
v -85.533142 3.782863 -48.087532
v -85.714180 3.782864 -48.476318
v -85.739540 3.782863 -48.294758
v -85.714127 3.782864 -48.113380
v -85.262177 3.304199 -48.297314
v -85.381172 3.304199 -48.139736
v -85.536774 3.304199 -48.294395
v -85.378357 3.304199 -48.452595
v -85.539383 3.304199 -48.021221
v -85.695488 3.304199 -48.136707
v -85.811768 3.304199 -48.292042
v -85.692581 3.304200 -48.449451
v -85.534485 3.304199 -48.568302
v -85.538132 0.992798 -46.906845
v -84.555252 0.992798 -47.313965
v -84.148132 0.992798 -48.296844
v -84.555252 0.992798 -49.279724
v -85.538132 0.992798 -49.686844
v -86.521011 0.992798 -49.279724
v -86.928131 0.992798 -48.296844
v -86.521011 0.992798 -47.313965
v -85.184395 3.762356 -47.944271
v -85.535126 3.762357 -47.807652
v -85.047943 3.762356 -48.295570
v -85.184433 3.762356 -48.646908
v -85.535179 3.762356 -48.783501
v -85.885979 3.762357 -48.646931
v -86.022331 3.762357 -48.295597
v -85.885941 3.762357 -47.944286

# UV coordinates
vt 0.216206 0.651676
vt 0.253934 0.664143
vt 0.327496 0.815732
vt 0.281514 0.825475
vt 0.169064 0.752967
vt 0.155957 0.603990
vt 0.060069 0.619160
vt 0.126837 0.531736
vt 0.387927 0.808801
vt 0.300083 0.675265
vt 0.256437 0.503725
vt 0.282407 0.519454
vt 0.223850 0.464447
vt 0.206129 0.426507
vt 0.313102 0.535291
vt 0.368387 0.370831
vt 0.386170 0.391713
vt 0.338767 0.342026
vt 0.312083 0.322726
vt 0.406180 0.418033
vt 0.519489 0.289223
vt 0.531319 0.319556
vt 0.480543 0.247679
vt 0.430117 0.232432
vt 0.544992 0.357269
vt 0.683059 0.293944
vt 0.693828 0.342205
vt 0.622095 0.213274
vt 0.532460 0.154285
vt 0.700513 0.399833
vt 0.903824 0.452495
vt 0.855178 0.495402
vt 0.759221 0.227046
vt 0.598074 0.090558
vt 0.794320 0.560801
vt 0.636920 0.999998
vt 0.633284 0.953412
vt 0.752607 0.076496
vt 0.828978 0.063315
vt 0.613398 0.000002
vt 0.633338 0.887750
vt 0.242551 0.910491
vt 0.000002 0.669121
vt 0.529494 0.697149
vt 0.492918 0.648071
vt 0.506401 0.641783
vt 0.536113 0.675727
vt 0.472600 0.598217
vt 0.490148 0.600451
vt 0.491127 0.546552
vt 0.503821 0.564279
vt 0.541568 0.544589
vt 0.542022 0.560693
vt 0.589148 0.553158
vt 0.579468 0.570259
vt 0.614879 0.606040
vt 0.597939 0.611034
vt 0.592254 0.678005
vt 0.580607 0.662353
vt 0.316677 0.680260
vt 0.350539 0.680206
vt 0.435134 0.783582
vt 0.407265 0.803434
vt 0.324250 0.541709
vt 0.350850 0.551778
vt 0.413315 0.427123
vt 0.430456 0.447526
vt 0.547713 0.370084
vt 0.553149 0.399708
vt 0.696643 0.417440
vt 0.681119 0.451330
vt 0.775501 0.578228
vt 0.741861 0.594929
vt 0.632315 0.867585
vt 0.625383 0.831572
vt 0.083531 0.165927
vt 0.130649 0.219145
vt 0.035466 0.034333
vt 0.186186 0.073249
vt 0.217951 0.119819
vt 0.232398 0.162904
vt 0.217449 0.203513
vt 0.179857 0.229809
vt 0.115253 0.145680
vt 0.138634 0.177136
vt 0.110404 0.102344
vt 0.155268 0.103807
vt 0.180558 0.128353
vt 0.191094 0.154848
vt 0.184601 0.176866
vt 0.164739 0.188056
vt 0.534778 0.602187
vt 0.544073 0.602671
vt 0.544739 0.613697
vt 0.534099 0.611478
vt 0.536016 0.621413
vt 0.544652 0.625351
vt 0.553469 0.604726
vt 0.554966 0.615021
vt 0.553833 0.625576
vt 0.158947 0.168946
vt 0.145290 0.158295
vt 0.152647 0.145429
vt 0.167374 0.160784
vt 0.132038 0.143213
vt 0.137023 0.128404
vt 0.150589 0.121923
vt 0.163783 0.136252
vt 0.173499 0.150552
vt 0.445500 0.778766
vt 0.361030 0.681969
vt 0.358246 0.554921
vt 0.434921 0.453813
vt 0.553876 0.408342
vt 0.677972 0.462091
vt 0.731164 0.602154
vt 0.623709 0.820171
vt 0.527623 0.628135
vt 0.542934 0.641519
vt 0.519667 0.608002
vt 0.525255 0.591322
vt 0.543326 0.588397
vt 0.561765 0.595464
vt 0.569022 0.614900
vt 0.562048 0.636769

# vertex normals
vn 0.382683 -0.000000 0.923880
vn 0.382683 -0.000000 0.923880
vn 0.382683 -0.000000 0.923880
vn 0.000189 -1.000000 0.000438
vn 0.000189 -1.000000 0.000437
vn -0.002839 -0.999991 -0.003110
vn -0.002839 -0.999991 -0.003110
vn 0.002195 -0.714548 -0.699583
vn 0.001004 -0.426062 -0.904693
vn -0.638156 -0.428242 -0.639817
vn -0.490895 -0.717327 -0.494434
vn 0.000000 1.000000 0.000000
vn 1.000000 0.000000 -0.000014
vn 1.000000 -0.000000 0.000000
vn 0.923880 -0.000000 0.382683
vn 0.923880 -0.000000 0.382683
vn -0.008271 -0.999966 -0.000135
vn -0.008271 -0.999966 -0.000136
vn -0.902694 -0.430283 -0.000832
vn -0.694046 -0.719929 -0.001775
vn 0.923880 0.000000 -0.382683
vn 0.923880 0.000000 -0.382683
vn -0.007039 -0.999950 0.007039
vn -0.007039 -0.999950 0.007039
vn -0.638015 -0.431130 0.638015
vn -0.489975 -0.721006 0.489974
vn 0.000014 0.000000 -1.000000
vn 0.000000 0.000000 -1.000000
vn 0.382683 0.000000 -0.923880
vn 0.382683 0.000000 -0.923880
vn 0.000135 -0.999966 0.008272
vn 0.000135 -0.999966 0.008272
vn 0.000832 -0.430284 0.902693
vn 0.001775 -0.719930 0.694045
vn -0.707093 0.000000 -0.707121
vn -0.707107 0.000000 -0.707107
vn 0.003111 -0.999991 0.002840
vn 0.003111 -0.999991 0.002840
vn 0.639817 -0.428244 0.638155
vn 0.494432 -0.717330 0.490892
vn -0.923880 0.000000 -0.382683
vn -0.923880 0.000000 -0.382683
vn -0.000437 -1.000000 -0.000189
vn -0.000437 -1.000000 -0.000189
vn 0.904692 -0.426065 -0.001004
vn 0.699579 -0.714552 -0.002195
vn -0.707107 0.000630 0.707107
vn -0.707107 0.000630 0.707107
vn -0.923820 0.000582 0.382828
vn -0.923820 0.000582 0.382828
vn -0.001616 -0.999997 0.001616
vn -0.001616 -0.999997 0.001616
vn 0.640080 -0.424965 -0.640079
vn 0.495707 -0.713127 -0.495706
vn -0.382827 0.000582 0.923820
vn -0.382827 0.000582 0.923820
vn -0.000000 0.950281 0.311394
vn 0.220189 0.950281 0.220189
vn 0.162356 0.973282 0.162365
vn -0.000033 0.973258 0.229716
vn 0.311394 0.950281 0.000000
vn 0.229791 0.973240 -0.000014
vn 0.220189 0.950281 -0.220189
vn 0.162266 0.973307 -0.162303
vn -0.000000 0.950281 -0.311394
vn -0.000032 0.973293 -0.229566
vn -0.220189 0.950281 -0.220189
vn -0.162126 0.973365 -0.162097
vn -0.311394 0.950281 0.000000
vn -0.229439 0.973323 -0.000013
vn -0.220189 0.950281 0.220189
vn -0.162213 0.973341 0.162155
vn 0.707107 -0.000000 0.707107
vn 0.000000 -0.000000 1.000000
vn 0.000000 -0.000000 1.000000
vn 1.000000 -0.000000 -0.000000
vn 0.707107 -0.000000 -0.707107
vn 0.000000 -0.000000 -1.000000
vn 0.000000 -0.000000 -1.000000
vn -0.382683 -0.000000 -0.923880
vn -0.923880 -0.000000 -0.382683
vn -0.923880 -0.000000 -0.382683
vn -0.707107 -0.000000 0.707107
vn -0.923879 -0.000000 0.382684
vn 0.000002 -0.000001 -1.000000
vn -0.707107 -0.000001 -0.707106
vn 0.707108 0.000001 -0.707106
vn 1.000000 0.000001 -0.000001
vn 0.707108 0.000000 0.707106
vn 0.000000 -0.000000 1.000000
vn -0.707107 -0.000000 0.707107
vn -1.000000 -0.000000 0.000000
vn -0.000001 -1.000000 -0.000003
vn -0.000001 -1.000000 -0.000003
vn -0.000001 -1.000000 -0.000002
vn -0.000001 -1.000000 -0.000002
vn 0.000001 -1.000000 -0.000002
vn 0.000000 -1.000000 -0.000001
vn 0.000002 -1.000000 -0.000001
vn 0.000001 -1.000000 -0.000001
vn 0.000001 -1.000000 -0.000000
vn 0.000000 -1.000000 -0.000000
vn -0.000000 -1.000000 -0.000000
vn -0.000000 -1.000000 -0.000000
vn 0.000000 -1.000000 -0.000000
vn 0.000000 -1.000000 -0.000000
vn -0.000000 -1.000000 -0.000001
vn 0.000000 -1.000000 -0.000001
vn 0.037689 0.998589 -0.037399
vn 0.000097 0.999022 -0.044212
vn 0.000002 1.000000 -0.000001
vn 0.044694 0.999001 0.000036
vn 0.037770 0.998578 0.037623
vn 0.000094 0.999009 0.044514
vn -0.037165 0.998616 -0.037223
vn -0.043979 0.999032 0.000043
vn -0.037235 0.998605 0.037446
vn 0.000000 -1.000000 -0.000000
vn -0.000000 -1.000000 -0.000000
vn -0.000001 -1.000000 -0.000000
vn -0.000000 -1.000000 -0.000000
vn -0.000001 -1.000000 0.000000
vn -0.000001 -1.000000 -0.000000
vn -0.000001 -1.000000 -0.000000
vn -0.000001 -1.000000 -0.000000
vn -0.000001 -1.000000 0.000000
vn 0.707107 -0.000000 0.707107
vn 0.000000 -0.000000 1.000000
vn 0.000000 -0.000000 1.000000
vn 1.000000 0.000000 0.000000
vn 1.000000 0.000000 0.000000
vn 0.707107 0.000000 -0.707107
vn 0.382683 0.000000 -0.923880
vn -0.707107 0.000000 -0.707107
vn -0.382684 0.000000 -0.923880
vn -0.382684 0.000000 -0.923880
vn -0.923880 0.000000 -0.382683
vn -0.707107 -0.000000 0.707107
vn -0.923879 -0.000000 0.382684
vn 0.060982 0.996278 0.060928
vn 0.000082 0.996083 0.088428
vn 0.088684 0.996060 0.000032
vn 0.060796 0.996304 -0.060687
vn 0.000082 0.996122 -0.087986
vn -0.060236 0.996363 -0.060262
vn -0.087640 0.996152 0.000036
vn -0.060413 0.996338 0.060499

# Mesh
g Torus001
usemtl DefaultMaterial
f 1/1/1 2/2/2 3/3/2 4/4/3
f 6/6/6 1/1/7 4/4/4 5/5/5
f 8/8/10 6/6/11 5/5/8 7/7/9
f 2/2/12 10/10/12 9/9/12 3/3/12
f 11/11/13 12/12/14 2/2/15 1/1/16
f 11/11/18 1/1/7 6/6/6 13/13/17
f 13/13/20 6/6/11 8/8/10 14/14/19
f 12/12/12 15/15/12 10/10/12 2/2/12
f 12/12/14 11/11/13 16/16/21 17/17/22
f 16/16/24 11/11/18 13/13/17 18/18/23
f 18/18/26 13/13/20 14/14/19 19/19/25
f 15/15/12 12/12/12 17/17/12 20/20/12
f 17/17/29 16/16/30 21/21/27 22/22/28
f 16/16/24 18/18/23 23/23/31 21/21/32
f 18/18/26 19/19/25 24/24/33 23/23/34
f 20/20/12 17/17/12 22/22/12 25/25/12
f 22/22/28 21/21/27 26/26/35 27/27/36
f 21/21/32 23/23/31 28/28/37 26/26/38
f 23/23/34 24/24/33 29/29/39 28/28/40
f 25/25/12 22/22/12 27/27/12 30/30/12
f 27/27/36 26/26/35 31/31/41 32/32/42
f 28/28/37 33/33/43 31/31/44 26/26/38
f 29/29/39 34/34/45 33/33/46 28/28/40
f 30/30/12 27/27/12 32/32/12 35/35/12
f 36/36/47 37/37/48 32/32/49 31/31/50
f 33/33/43 38/38/51 36/39/52 31/31/44
f 34/34/45 39/40/53 38/38/54 33/33/46
f 37/37/12 40/41/12 35/35/12 32/32/12
f 4/4/55 3/3/56 37/37/48 36/36/47
f 5/5/5 4/4/4 36/36/52 38/42/51
f 7/7/9 5/5/8 38/42/54 39/43/53
f 3/3/12 9/9/12 40/41/12 37/37/12
f 42/45/58 43/46/59 44/47/60 41/44/57
f 45/48/61 46/49/62 43/46/59 42/45/58
f 46/49/62 45/48/61 47/50/63 48/51/64
f 48/51/64 47/50/63 49/52/65 50/53/66
f 50/53/66 49/52/65 51/54/67 52/55/68
f 52/55/68 51/54/67 53/56/69 54/57/70
f 55/58/71 56/59/72 54/57/70 53/56/69
f 41/44/57 44/47/60 56/59/72 55/58/71
f 57/60/73 58/61/73 59/62/74 60/63/75
f 61/64/76 62/65/76 58/61/73 57/60/73
f 62/65/76 61/64/76 63/66/77 64/67/77
f 64/67/77 63/66/77 65/68/78 66/69/79
f 66/69/79 65/68/78 67/70/80 68/71/80
f 68/71/81 67/70/81 69/72/81 70/73/82
f 71/74/83 72/75/83 70/73/84 69/72/84
f 60/63/75 59/62/74 72/75/83 71/74/83
f 74/77/86 8/8/10 7/7/9 73/76/85
f 73/76/85 7/7/9 39/43/53 75/78/87
f 75/78/87 39/40/53 34/34/45 76/79/88
f 29/29/39 77/80/89 76/79/88 34/34/45
f 24/24/33 78/81/90 77/80/89 29/29/39
f 19/19/25 79/82/91 78/81/90 24/24/33
f 14/14/19 80/83/92 79/82/91 19/19/25
f 80/83/92 14/14/19 8/8/10 74/77/86
f 82/85/96 74/77/93 73/76/94 81/84/95
f 81/84/95 73/76/94 75/78/97 83/86/98
f 84/87/100 83/86/98 75/78/97 76/79/99
f 85/88/102 84/87/100 76/79/99 77/80/101
f 78/81/103 86/89/104 85/88/102 77/80/101
f 79/82/105 87/90/106 86/89/104 78/81/103
f 79/82/105 80/83/107 88/91/108 87/90/106
f 80/83/107 74/77/93 82/85/96 88/91/108
f 92/95/112 89/92/109 90/93/110 91/94/111
f 93/96/113 92/95/112 91/94/111 94/97/114
f 91/94/111 90/93/110 95/98/115 96/99/116
f 94/97/114 91/94/111 96/99/116 97/100/117
f 101/104/121 98/101/118 99/102/119 100/103/120
f 100/103/120 99/102/119 102/105/122 103/106/123
f 105/108/125 100/103/120 103/106/123 104/107/124
f 106/109/126 101/104/121 100/103/120 105/108/125
f 99/102/119 82/85/96 81/84/95 102/105/122
f 102/105/122 81/84/95 83/86/98 103/106/123
f 104/107/124 103/106/123 83/86/98 84/87/100
f 105/108/125 104/107/124 84/87/100 85/88/102
f 86/89/104 106/109/126 105/108/125 85/88/102
f 87/90/106 101/104/121 106/109/126 86/89/104
f 87/90/106 88/91/108 98/101/118 101/104/121
f 88/91/108 82/85/96 99/102/119 98/101/118
f 108/111/127 42/45/127 41/44/128 107/110/129
f 109/112/131 45/48/130 42/45/127 108/111/127
f 45/48/130 109/112/131 110/113/132 47/50/132
f 47/50/132 110/113/132 111/114/133 49/52/133
f 49/52/135 111/114/136 112/115/134 51/54/134
f 51/54/134 112/115/134 113/116/137 53/56/137
f 114/117/138 55/58/138 53/56/139 113/116/139
f 107/110/129 41/44/128 55/58/138 114/117/138
f 43/46/59 115/118/140 116/119/141 44/47/60
f 43/46/59 46/49/62 117/120/142 115/118/140
f 46/49/62 48/51/64 118/121/143 117/120/142
f 118/121/143 48/51/64 50/53/66 119/122/144
f 119/122/144 50/53/66 52/55/68 120/123/145
f 121/124/146 120/123/145 52/55/68 54/57/70
f 122/125/147 121/124/146 54/57/70 56/59/72
f 44/47/60 116/119/141 122/125/147 56/59/72
f 97/100/117 96/99/116 121/124/146 122/125/147
f 117/120/142 118/121/143 89/92/109 92/95/112
f 115/118/140 117/120/142 92/95/112 93/96/113
f 115/118/140 93/96/113 94/97/114 116/119/141
f 96/99/116 95/98/115 120/123/145 121/124/146
f 89/92/109 118/121/143 119/122/144 90/93/110
f 90/93/110 119/122/144 120/123/145 95/98/115
f 116/119/141 94/97/114 97/100/117 122/125/147
f 58/61/12 108/111/12 107/110/12 59/62/12
f 59/62/12 107/110/12 114/117/12 72/75/12
f 72/75/12 114/117/12 113/116/12 70/73/12
f 112/115/12 68/71/12 70/73/12 113/116/12
f 111/114/12 66/69/12 68/71/12 112/115/12
f 110/113/12 64/67/12 66/69/12 111/114/12
f 109/112/12 62/65/12 64/67/12 110/113/12
f 62/65/12 109/112/12 108/111/12 58/61/12
f 10/10/12 57/60/12 60/63/12 9/9/12
f 15/15/12 61/64/12 57/60/12 10/10/12
f 61/64/12 15/15/12 20/20/12 63/66/12
f 63/66/12 20/20/12 25/25/12 65/68/12
f 65/68/12 25/25/12 30/30/12 67/70/12
f 67/70/12 30/30/12 35/35/12 69/72/12
f 40/41/12 71/74/12 69/72/12 35/35/12
f 9/9/12 60/63/12 71/74/12 40/41/12
